<svg width="129" height="35" viewBox="0 0 129 35" fill="none" xmlns="http://www.w3.org/2000/svg">
<path d="M7.41163 5.7366C7.41163 6.46524 7.61656 7.13696 8.02642 7.75175C8.43627 8.36654 8.9486 8.91301 9.56339 9.39118C10.1782 9.86935 11.0207 10.4614 12.0909 11.1672C13.3432 11.987 14.3451 12.7156 15.0965 13.3532C15.8479 13.9679 16.4855 14.7194 17.0092 15.6074C17.5556 16.4726 17.8289 17.4518 17.8289 18.5447C17.8289 19.7515 17.4987 20.89 16.8384 21.9602C16.1781 23.0076 15.1876 23.8615 13.8669 24.5218C12.5463 25.1822 10.9524 25.5123 9.08522 25.5123C5.0777 25.5123 2.23146 23.9184 0.546479 20.7306L4.40599 17.7591C5.49895 20.0134 6.72853 22.1993 8.09473 24.3169H8.12888C8.78921 24.3169 9.404 24.1461 9.97325 23.8046C10.5425 23.4403 10.9979 22.9735 11.3394 22.4042C11.681 21.835 11.8518 21.2316 11.8518 20.594C11.8518 19.9109 11.6468 19.2847 11.237 18.7155C10.8499 18.1235 10.3603 17.6111 9.76832 17.1785C9.1763 16.7231 8.36796 16.1766 7.34332 15.5391C6.11374 14.7649 5.12324 14.0818 4.37183 13.4898C3.62043 12.8978 2.97148 12.1805 2.425 11.338C1.90129 10.4728 1.63944 9.48226 1.63944 8.36654C1.63944 7.11419 1.99237 5.97569 2.69824 4.95104C3.42688 3.90362 4.45153 3.0839 5.77219 2.49188C7.11562 1.89986 8.68674 1.60385 10.4856 1.60385C12.2389 1.60385 13.6734 1.88848 14.7891 2.45773C15.9276 3.00421 16.9522 3.78977 17.863 4.81442L14.2768 8.43485C13.07 6.43109 11.8518 4.55257 10.6222 2.79928C9.59754 2.79928 8.80059 3.0839 8.23134 3.65315C7.68487 4.19963 7.41163 4.89412 7.41163 5.7366ZM33.4302 23.2239L28.4095 25.5806C27.7947 25.148 27.3734 24.556 27.1457 23.8046C26.326 24.3055 25.4949 24.7154 24.6524 25.0342C23.8327 25.3529 23.1154 25.5123 22.5006 25.5123C21.5671 25.5123 20.8043 25.1822 20.2123 24.5218C19.6202 23.8615 19.3242 23.019 19.3242 21.9944C19.3242 21.539 19.3698 21.0494 19.4609 20.5257C19.5747 19.9792 19.7113 19.5466 19.8707 19.2278L27.1116 18.0665L27.1799 17.076C27.2254 16.0514 27.0091 15.2545 26.5309 14.6852C26.0528 14.0932 25.2786 13.7972 24.2084 13.7972C23.7302 13.7972 23.2293 13.8541 22.7056 13.9679C22.1819 14.059 21.7379 14.1843 21.3735 14.3437L20.8271 15.5049L19.9049 15.1634L21.476 10.2451C23.2293 9.49365 24.8915 9.11794 26.4626 9.11794C28.0793 9.11794 29.3999 9.55057 30.4246 10.4158C31.4492 11.2583 31.9616 12.5904 31.9616 14.412L31.9274 15.0951L31.5859 19.706L31.5176 20.9356C31.5176 21.3454 31.5517 21.6756 31.62 21.9261C31.6883 22.1538 31.8022 22.3928 31.9616 22.6433L33.0204 22.2334L33.4302 23.2239ZM25.6771 23.0532C26.0414 23.0532 26.4626 22.9165 26.9408 22.6433L26.9066 21.9261L26.9408 21.1746L27.0433 19.2278L24.4133 19.8426C24.3222 20.1386 24.2767 20.5371 24.2767 21.038C24.2767 21.7211 24.4133 22.2334 24.6866 22.575C24.9598 22.8938 25.29 23.0532 25.6771 23.0532ZM51.1817 22.6092L46.4 25.4099C44.9655 24.2486 43.7929 22.4498 42.8821 20.0134L42.5064 18.9546L40.2863 19.9109L40.2521 23.907L41.5159 24.0095V25H34.1726V24.0095L35.4363 23.907L35.2655 3.44822L33.9676 3.72146L33.6261 2.73097L39.9448 0.81829L40.4229 1.63801L40.3205 14.412L44.8631 9.01548C46.457 9.47088 47.6296 10.2678 48.381 11.4063C49.1552 12.5448 49.5423 14.059 49.5423 15.9489L46.4342 17.281L46.6391 17.6908C47.0034 18.5561 47.493 19.3986 48.1078 20.2183C48.7226 21.038 49.3146 21.6642 49.8838 22.0968L50.806 21.5845L51.1817 22.6092ZM40.2863 18.6472L44.8972 16.4613C44.8972 15.9603 44.7037 15.4138 44.3166 14.8218C43.9523 14.2298 43.5083 13.8655 42.9845 13.7289L40.3205 16.0514L40.2863 18.6472ZM65.7173 23.2239L60.6966 25.5806C60.0818 25.148 59.6605 24.556 59.4328 23.8046C58.6131 24.3055 57.782 24.7154 56.9395 25.0342C56.1198 25.3529 55.4025 25.5123 54.7878 25.5123C53.8542 25.5123 53.0914 25.1822 52.4994 24.5218C51.9074 23.8615 51.6113 23.019 51.6113 21.9944C51.6113 21.539 51.6569 21.0494 51.748 20.5257C51.8618 19.9792 51.9984 19.5466 52.1578 19.2278L59.3987 18.0665L59.467 17.076C59.5125 16.0514 59.2962 15.2545 58.818 14.6852C58.3399 14.0932 57.5657 13.7972 56.4955 13.7972C56.0173 13.7972 55.5164 13.8541 54.9927 13.9679C54.469 14.059 54.025 14.1843 53.6606 14.3437L53.1142 15.5049L52.192 15.1634L53.7631 10.2451C55.5164 9.49365 57.1786 9.11794 58.7497 9.11794C60.3664 9.11794 61.6871 9.55057 62.7117 10.4158C63.7364 11.2583 64.2487 12.5904 64.2487 14.412L64.2145 15.0951L63.873 19.706L63.8047 20.9356C63.8047 21.3454 63.8388 21.6756 63.9071 21.9261C63.9754 22.1538 64.0893 22.3928 64.2487 22.6433L65.3075 22.2334L65.7173 23.2239ZM57.9642 23.0532C58.3285 23.0532 58.7497 22.9165 59.2279 22.6433L59.1937 21.9261L59.2279 21.1746L59.3304 19.2278L56.7004 19.8426C56.6094 20.1386 56.5638 20.5371 56.5638 21.038C56.5638 21.7211 56.7004 22.2334 56.9737 22.575C57.2469 22.8938 57.5771 23.0532 57.9642 23.0532ZM83.063 24.0095V25H75.7538V24.0095L77.0176 23.907V16.7003C77.0176 15.6985 76.7329 14.9243 76.1637 14.3778C75.6172 13.8313 74.8544 13.5467 73.8753 13.5239L72.7823 14.651L72.6457 23.907L73.9095 24.0095V25H66.5661V24.0095L67.8299 23.907L67.7274 11.6796L66.4295 11.987L66.088 10.9623L71.4845 9.28872L72.6799 13.1141L75.5147 9.04963C77.6779 9.04963 79.2718 9.56196 80.2964 10.5866C81.3211 11.6113 81.8334 13.1938 81.8334 15.3341V23.907L83.063 24.0095ZM97.9711 23.2239L92.9503 25.5806C92.3355 25.148 91.9143 24.556 91.6866 23.8046C90.8669 24.3055 90.0358 24.7154 89.1933 25.0342C88.3735 25.3529 87.6563 25.5123 87.0415 25.5123C86.1079 25.5123 85.3451 25.1822 84.7531 24.5218C84.1611 23.8615 83.8651 23.019 83.8651 21.9944C83.8651 21.539 83.9106 21.0494 84.0017 20.5257C84.1156 19.9792 84.2522 19.5466 84.4116 19.2278L91.6524 18.0665L91.7207 17.076C91.7663 16.0514 91.55 15.2545 91.0718 14.6852C90.5936 14.0932 89.8194 13.7972 88.7493 13.7972C88.2711 13.7972 87.7701 13.8541 87.2464 13.9679C86.7227 14.059 86.2787 14.1843 85.9144 14.3437L85.3679 15.5049L84.4457 15.1634L86.0169 10.2451C87.7701 9.49365 89.4324 9.11794 91.0035 9.11794C92.6201 9.11794 93.9408 9.55057 94.9655 10.4158C95.9901 11.2583 96.5024 12.5904 96.5024 14.412L96.4683 15.0951L96.1267 19.706L96.0584 20.9356C96.0584 21.3454 96.0926 21.6756 96.1609 21.9261C96.2292 22.1538 96.343 22.3928 96.5024 22.6433L97.5612 22.2334L97.9711 23.2239ZM90.2179 23.0532C90.5822 23.0532 91.0035 22.9165 91.4816 22.6433L91.4475 21.9261L91.4816 21.1746L91.5841 19.2278L88.9542 19.8426C88.8631 20.1386 88.8176 20.5371 88.8176 21.038C88.8176 21.7211 88.9542 22.2334 89.2274 22.575C89.5007 22.8938 89.8308 23.0532 90.2179 23.0532ZM114.698 9.63027V10.7232L113.707 10.7574L109.37 20.8331C108.186 23.6338 106.956 26.1954 105.681 28.518C104.429 30.8405 103.29 32.6849 102.266 34.0511L98.2353 30.2257C101.059 28.609 103.586 26.833 105.818 24.8975L103.939 25L98.6793 10.7574L97.6888 10.7232V9.63027H105.784V10.7232L104.349 10.7574L107.457 21.2088L110.258 10.7574L108.823 10.7232V9.63027H114.698ZM128.791 23.2239L123.77 25.5806C123.155 25.148 122.734 24.556 122.506 23.8046C121.686 24.3055 120.855 24.7154 120.013 25.0342C119.193 25.3529 118.476 25.5123 117.861 25.5123C116.927 25.5123 116.165 25.1822 115.573 24.5218C114.981 23.8615 114.685 23.019 114.685 21.9944C114.685 21.539 114.73 21.0494 114.821 20.5257C114.935 19.9792 115.072 19.5466 115.231 19.2278L122.472 18.0665L122.54 17.076C122.586 16.0514 122.369 15.2545 121.891 14.6852C121.413 14.0932 120.639 13.7972 119.569 13.7972C119.091 13.7972 118.59 13.8541 118.066 13.9679C117.542 14.059 117.098 14.1843 116.734 14.3437L116.187 15.5049L115.265 15.1634L116.836 10.2451C118.59 9.49365 120.252 9.11794 121.823 9.11794C123.44 9.11794 124.76 9.55057 125.785 10.4158C126.81 11.2583 127.322 12.5904 127.322 14.412L127.288 15.0951L126.946 19.706L126.878 20.9356C126.878 21.3454 126.912 21.6756 126.98 21.9261C127.049 22.1538 127.163 22.3928 127.322 22.6433L128.381 22.2334L128.791 23.2239ZM121.037 23.0532C121.402 23.0532 121.823 22.9165 122.301 22.6433L122.267 21.9261L122.301 21.1746L122.404 19.2278L119.774 19.8426C119.683 20.1386 119.637 20.5371 119.637 21.038C119.637 21.7211 119.774 22.2334 120.047 22.575C120.32 22.8938 120.65 23.0532 121.037 23.0532Z" fill="#464646"/>
</svg>
